<svg xmlns="http://www.w3.org/2000/svg" fill="inherit" viewBox="0 0 30 31">
    <path fill="inherit"
        d="M17.3 25.91c.5 0 .91.48.91 1.08 0 .59-.4 1.07-.91 1.07h-4.6c-.5 0-.91-.48-.91-1.07 0-.6.4-1.08.91-1.08zM15 2.34a9.68 9.68 0 019.64 9.71c0 3.5-1.86 6.7-4.83 8.41-.23.14-.4.39-.5.82a3.21 3.21 0 01-3.13 2.5H13.5a3.21 3.21 0 01-3.17-2.68c-.08-.45-.17-.65-.12-.62a9.72 9.72 0 01-4.85-8.43c0-5.36 4.31-9.7 9.64-9.7zm0 2.15a7.53 7.53 0 00-7.5 7.56 7.57 7.57 0 003.78 6.57c.65.38.99 1.1 1.16 2.12.1.51.54.89 1.06.89h2.68c.5 0 .94-.35 1.05-.83.23-.98.73-1.73 1.5-2.19a7.57 7.57 0 003.77-6.56A7.53 7.53 0 0015 4.5z">
    </path>
</svg>