<svg width="0" height="0" class="hidden"><symbol viewBox="0 0 24 24" fill="none" xmlns="http://www.w3.org/2000/svg" id="add"><rect x="11" y="4" width="2" height="16" rx="1" fill="currentColor"></rect><rect x="4" y="13" width="2" height="16" rx="1" transform="rotate(-90 4 13)" fill="currentColor"></rect></symbol><symbol viewBox="0 0 24 24" fill="none" xmlns="http://www.w3.org/2000/svg" id="chevron"><path d="M15 19L8 12L15 5" stroke="currentColor" stroke-width="2" stroke-linecap="round" stroke-linejoin="round"></path></symbol><symbol viewBox="0 0 24 24" stroke="none" fill="inherit" xmlns="http://www.w3.org/2000/svg" id="pause"><path d="M15 5.5V18.5C15 18.9647 15 19.197 15.0384 19.3902C15.1962 20.1836 15.816 20.8037 16.6094 20.9615C16.8026 21 17.0349 21 17.4996 21C17.9642 21 18.197 21 18.3902 20.9615C19.1836 20.8037 19.8041 20.1836 19.9619 19.3902C20 19.1987 20 18.9687 20 18.5122V18.5V5.5V5.48777C20 5.03126 20 4.80136 19.9619 4.60986C19.8041 3.81648 19.1836 3.19624 18.3902 3.03843C18.197 3 17.9647 3 17.5 3C17.0353 3 16.8026 3 16.6094 3.03843C15.816 3.19624 15.1962 3.81648 15.0384 4.60986C15 4.80306 15 5.03534 15 5.5Z"></path><path d="M4 5.5V18.5C4 18.9647 4 19.197 4.03843 19.3902C4.19624 20.1836 4.81599 20.8037 5.60938 20.9615C5.80257 21 6.0349 21 6.49956 21C6.96421 21 7.19698 21 7.39018 20.9615C8.18356 20.8037 8.8041 20.1836 8.96191 19.3902C9 19.1987 9 18.9687 9 18.5122V18.5V5.5V5.48777C9 5.03126 9 4.80136 8.96191 4.60986C8.8041 3.81648 8.18356 3.19624 7.39018 3.03843C7.19698 3 6.96465 3 6.5 3C6.03535 3 5.80257 3 5.60938 3.03843C4.81599 3.19624 4.19624 3.81648 4.03843 4.60986C4 4.80306 4 5.03534 4 5.5Z"></path><path d="M15 5.5V18.5C15 18.9647 15 19.197 15.0384 19.3902C15.1962 20.1836 15.816 20.8037 16.6094 20.9615C16.8026 21 17.0349 21 17.4996 21C17.9642 21 18.197 21 18.3902 20.9615C19.1836 20.8037 19.8041 20.1836 19.9619 19.3902C20 19.1987 20 18.9687 20 18.5122V18.5V5.5V5.48777C20 5.03126 20 4.80136 19.9619 4.60986C19.8041 3.81648 19.1836 3.19624 18.3902 3.03843C18.197 3 17.9647 3 17.5 3C17.0353 3 16.8026 3 16.6094 3.03843C15.816 3.19624 15.1962 3.81648 15.0384 4.60986C15 4.80306 15 5.03534 15 5.5Z"></path><path d="M4 5.5V18.5C4 18.9647 4 19.197 4.03843 19.3902C4.19624 20.1836 4.81599 20.8037 5.60938 20.9615C5.80257 21 6.0349 21 6.49956 21C6.96421 21 7.19698 21 7.39018 20.9615C8.18356 20.8037 8.8041 20.1836 8.96191 19.3902C9 19.1987 9 18.9687 9 18.5122V18.5V5.5V5.48777C9 5.03126 9 4.80136 8.96191 4.60986C8.8041 3.81648 8.18356 3.19624 7.39018 3.03843C7.19698 3 6.96465 3 6.5 3C6.03535 3 5.80257 3 5.60938 3.03843C4.81599 3.19624 4.19624 3.81648 4.03843 4.60986C4 4.80306 4 5.03534 4 5.5Z"></path></symbol><symbol viewBox="0 0 19 24" fill="none" xmlns="http://www.w3.org/2000/svg" id="play"><path fill-rule="evenodd" clip-rule="evenodd" d="M17.12 13.9801L4.56 22.6201C4.19948 22.868 3.77803 23.0127 3.34123 23.0384C2.90443 23.0642 2.4689 22.97 2.08175 22.7662C1.69459 22.5623 1.37053 22.2564 1.14462 21.8817C0.918712 21.507 0.799544 21.0776 0.800004 20.6401V3.36007C0.801363 2.92336 0.921854 2.4953 1.14849 2.122C1.37513 1.7487 1.69933 1.44432 2.08617 1.24165C2.473 1.03897 2.9078 0.945684 3.34372 0.971838C3.77965 0.997991 4.20018 1.14259 4.56 1.39006L17.12 10.0201C17.4418 10.2405 17.7049 10.536 17.8868 10.881C18.0686 11.226 18.1637 11.6101 18.1637 12.0001C18.1637 12.3901 18.0686 12.7742 17.8868 13.1192C17.7049 13.4642 17.4418 13.7597 17.12 13.9801Z" fill="currentColor" stroke="currentColor"></path></symbol></svg>