<svg width="0" height="0" class="hidden"><symbol viewBox="0 0 24 24" fill="none" xmlns="http://www.w3.org/2000/svg" id="add"><rect x="11" y="4" width="2" height="16" rx="1" fill="currentColor"></rect><rect x="4" y="13" width="2" height="16" rx="1" transform="rotate(-90 4 13)" fill="currentColor"></rect></symbol><symbol viewBox="0 0 24 24" fill="none" xmlns="http://www.w3.org/2000/svg" id="chevron"><path d="M15 19L8 12L15 5" stroke="currentColor" stroke-width="2" stroke-linecap="round" stroke-linejoin="round"></path></symbol><symbol viewBox="0 0 24 24" stroke="none" fill="inherit" xmlns="http://www.w3.org/2000/svg" id="pause"><path d="M15 5.5V18.5C15 18.9647 15 19.197 15.0384 19.3902C15.1962 20.1836 15.816 20.8037 16.6094 20.9615C16.8026 21 17.0349 21 17.4996 21C17.9642 21 18.197 21 18.3902 20.9615C19.1836 20.8037 19.8041 20.1836 19.9619 19.3902C20 19.1987 20 18.9687 20 18.5122V18.5V5.5V5.48777C20 5.03126 20 4.80136 19.9619 4.60986C19.8041 3.81648 19.1836 3.19624 18.3902 3.03843C18.197 3 17.9647 3 17.5 3C17.0353 3 16.8026 3 16.6094 3.03843C15.816 3.19624 15.1962 3.81648 15.0384 4.60986C15 4.80306 15 5.03534 15 5.5Z"></path><path d="M4 5.5V18.5C4 18.9647 4 19.197 4.03843 19.3902C4.19624 20.1836 4.81599 20.8037 5.60938 20.9615C5.80257 21 6.0349 21 6.49956 21C6.96421 21 7.19698 21 7.39018 20.9615C8.18356 20.8037 8.8041 20.1836 8.96191 19.3902C9 19.1987 9 18.9687 9 18.5122V18.5V5.5V5.48777C9 5.03126 9 4.80136 8.96191 4.60986C8.8041 3.81648 8.18356 3.19624 7.39018 3.03843C7.19698 3 6.96465 3 6.5 3C6.03535 3 5.80257 3 5.60938 3.03843C4.81599 3.19624 4.19624 3.81648 4.03843 4.60986C4 4.80306 4 5.03534 4 5.5Z"></path><path d="M15 5.5V18.5C15 18.9647 15 19.197 15.0384 19.3902C15.1962 20.1836 15.816 20.8037 16.6094 20.9615C16.8026 21 17.0349 21 17.4996 21C17.9642 21 18.197 21 18.3902 20.9615C19.1836 20.8037 19.8041 20.1836 19.9619 19.3902C20 19.1987 20 18.9687 20 18.5122V18.5V5.5V5.48777C20 5.03126 20 4.80136 19.9619 4.60986C19.8041 3.81648 19.1836 3.19624 18.3902 3.03843C18.197 3 17.9647 3 17.5 3C17.0353 3 16.8026 3 16.6094 3.03843C15.816 3.19624 15.1962 3.81648 15.0384 4.60986C15 4.80306 15 5.03534 15 5.5Z"></path><path d="M4 5.5V18.5C4 18.9647 4 19.197 4.03843 19.3902C4.19624 20.1836 4.81599 20.8037 5.60938 20.9615C5.80257 21 6.0349 21 6.49956 21C6.96421 21 7.19698 21 7.39018 20.9615C8.18356 20.8037 8.8041 20.1836 8.96191 19.3902C9 19.1987 9 18.9687 9 18.5122V18.5V5.5V5.48777C9 5.03126 9 4.80136 8.96191 4.60986C8.8041 3.81648 8.18356 3.19624 7.39018 3.03843C7.19698 3 6.96465 3 6.5 3C6.03535 3 5.80257 3 5.60938 3.03843C4.81599 3.19624 4.19624 3.81648 4.03843 4.60986C4 4.80306 4 5.03534 4 5.5Z"></path></symbol><symbol viewBox="0 0 24 24" stroke="inherit" fill="inherit" xmlns="http://www.w3.org/2000/svg" id="play"><path d="M5 17.3333V6.66663C5 5.78706 5 5.34728 5.18509 5.08704C5.34664 4.8599 5.59564 4.71053 5.87207 4.67487C6.1885 4.63406 6.57572 4.84058 7.35036 5.25372L7.35254 5.25488L17.3525 10.5882C18.212 11.0466 18.6418 11.2758 18.7826 11.581C18.9053 11.8469 18.9053 12.1531 18.7826 12.4189C18.6418 12.7241 18.212 12.9534 17.3525 13.4117L7.35254 18.7451L7.34978 18.7465C6.57553 19.1595 6.18842 19.3659 5.87207 19.3251C5.59564 19.2895 5.34664 19.1401 5.18509 18.913C5 18.6527 5 18.2129 5 17.3333Z"></path></symbol></svg>