<svg width="0" height="0" class="hidden"><symbol viewBox="0 0 24 24" fill="none" xmlns="http://www.w3.org/2000/svg" id="add"><rect x="11" y="4" width="2" height="16" rx="1" fill="currentColor"></rect><rect x="4" y="13" width="2" height="16" rx="1" transform="rotate(-90 4 13)" fill="currentColor"></rect></symbol><symbol viewBox="0 0 24 24" fill="none" xmlns="http://www.w3.org/2000/svg" id="chevron"><path d="M15 19L8 12L15 5" stroke="currentColor" stroke-width="2" stroke-linecap="round" stroke-linejoin="round"></path></symbol><symbol viewBox="0 0 16 18" fill="none" xmlns="http://www.w3.org/2000/svg" id="pause"><path d="M11 2.5V15.5C11 15.9647 11 16.197 11.0384 16.3902C11.1962 17.1836 11.816 17.8037 12.6094 17.9615C12.8026 18 13.0349 18 13.4996 18C13.9642 18 14.197 18 14.3902 17.9615C15.1836 17.8037 15.8041 17.1836 15.9619 16.3902C16 16.1987 16 15.9687 16 15.5122V15.5V2.5V2.48777C16 2.03126 16 1.80136 15.9619 1.60986C15.8041 0.81648 15.1836 0.19624 14.3902 0.03843C14.197 -2.6077e-08 13.9647 0 13.5 0C13.0353 0 12.8026 -2.6077e-08 12.6094 0.03843C11.816 0.19624 11.1962 0.81648 11.0384 1.60986C11 1.80306 11 2.03534 11 2.5Z" fill="currentColor"></path><path d="M0 2.5V15.5C0 15.9647 2.12342e-07 16.197 0.0384302 16.3902C0.19624 17.1836 0.81599 17.8037 1.60938 17.9615C1.80257 18 2.0349 18 2.49956 18C2.96421 18 3.19698 18 3.39018 17.9615C4.18356 17.8037 4.8041 17.1836 4.96191 16.3902C5 16.1987 5 15.9687 5 15.5122V15.5V2.5V2.48777C5 2.03126 5 1.80136 4.96191 1.60986C4.8041 0.81648 4.18356 0.19624 3.39018 0.03843C3.19698 -2.6077e-08 2.96465 0 2.5 0C2.03535 0 1.80257 -2.6077e-08 1.60938 0.03843C0.81599 0.19624 0.19624 0.81648 0.0384302 1.60986C2.12342e-07 1.80306 0 2.03534 0 2.5Z" fill="currentColor"></path></symbol><symbol viewBox="0 0 19 24" fill="none" xmlns="http://www.w3.org/2000/svg" id="play"><path fill-rule="evenodd" clip-rule="evenodd" d="M17.12 13.9801L4.56 22.6201C4.19948 22.868 3.77803 23.0127 3.34123 23.0384C2.90443 23.0642 2.4689 22.97 2.08175 22.7662C1.69459 22.5623 1.37053 22.2564 1.14462 21.8817C0.918712 21.507 0.799544 21.0776 0.800004 20.6401V3.36007C0.801363 2.92336 0.921854 2.4953 1.14849 2.122C1.37513 1.7487 1.69933 1.44432 2.08617 1.24165C2.473 1.03897 2.9078 0.945684 3.34372 0.971838C3.77965 0.997991 4.20018 1.14259 4.56 1.39006L17.12 10.0201C17.4418 10.2405 17.7049 10.536 17.8868 10.881C18.0686 11.226 18.1637 11.6101 18.1637 12.0001C18.1637 12.3901 18.0686 12.7742 17.8868 13.1192C17.7049 13.4642 17.4418 13.7597 17.12 13.9801Z" fill="currentColor" stroke="currentColor"></path></symbol><symbol xmlns="http://www.w3.org/2000/svg" fill="inherit" viewBox="0 0 24 24" id="stats"><path fill="currentColor" fill-rule="evenodd" d="M19.96 2c.55 0 1 .46 1 1.03v16.94c0 .57-.45 1.03-1 1.03h-3c-.55 0-1-.46-1-1.03V3.03c0-.57.45-1.03 1-1.03h3zM13 8c.55 0 1 .47 1 1.05v10.9c0 .58-.45 1.05-1 1.05h-3c-.55 0-1-.47-1-1.05V9.04C9 8.47 9.45 8 10 8h3zm-7 7c.55 0 1 .43 1 .95v4.1c0 .52-.45.95-1 .95H3c-.55 0-1-.43-1-.95v-4.1c0-.52.45-.95 1-.95h3z"></path></symbol><symbol viewBox="0 0 20 20" fill="none" xmlns="http://www.w3.org/2000/svg" id="sudoku"><rect x="1.75" y="1.75" width="16.5" height="16.5" rx="1.25" stroke="currentColor" stroke-width="1.5"></rect><path d="M7 19L7 1L7.9 1L7.9 10L7.9 19L7 19Z" fill="currentColor"></path><path d="M12.1895 19L12.1895 1L13.0895 1L13.0895 19L12.1895 19Z" fill="currentColor"></path><path d="M19 7.79529L1 7.79529L1 6.89529L19 6.89529L19 7.79529Z" fill="currentColor"></path><path d="M19 13.04L10 13.04L1 13.04L1 12.14L19 12.14L19 13.04Z" fill="currentColor"></path><path d="M3.82031 4.68162C3.82031 4.18456 4.22326 3.78162 4.72031 3.78162V3.78162C5.21737 3.78162 5.62031 4.18456 5.62031 4.68162V4.68162C5.62031 5.17867 5.21737 5.58162 4.72031 5.58162V5.58162C4.22326 5.58162 3.82031 5.17867 3.82031 4.68162V4.68162Z" fill="currentColor"></path><path d="M14.4052 9.9C14.4052 9.40294 14.8081 9 15.3052 9V9C15.8022 9 16.2052 9.40294 16.2052 9.9V9.9C16.2052 10.3971 15.8022 10.8 15.3052 10.8V10.8C14.8081 10.8 14.4052 10.3971 14.4052 9.9V9.9Z" fill="currentColor"></path></symbol><symbol xmlns="http://www.w3.org/2000/svg" fill="inherit" viewBox="0 0 16 21" id="time"><path fill="currentColor" fill-rule="evenodd" d="M8 5a8 8 0 110 16A8 8 0 018 5zm4.89 3.28a.97.97 0 00-1.38 0L7.3 12.52a.97.97 0 101.37 1.38l4.23-4.23c.38-.38.38-1 0-1.38zM10.56 0c.8 0 1.44.67 1.44 1.5S11.36 3 10.56 3H5.44C4.64 3 4 2.33 4 1.5S4.64 0 5.44 0h5.12z"></path></symbol></svg>