<svg width="0" height="0"><symbol xmlns="http://www.w3.org/2000/svg" id="add" fill="none" viewBox="0 0 24 24"><rect width="2" height="16" x="11" y="4" fill="currentColor" rx="1"/><rect width="2" height="16" x="4" y="13" fill="currentColor" rx="1" transform="rotate(-90 4 13)"/></symbol><symbol xmlns="http://www.w3.org/2000/svg" id="chevron" fill="none" viewBox="0 0 24 24"><path stroke="currentColor" stroke-linecap="round" stroke-linejoin="round" stroke-width="2" d="m15 19-7-7 7-7"/></symbol><symbol xmlns="http://www.w3.org/2000/svg" id="pause" fill="none" viewBox="0 0 16 18"><path fill="currentColor" d="M11 2.5v13c0 .465 0 .697.038.89a2 2 0 0 0 1.571 1.572c.194.038.426.038.89.038.465 0 .698 0 .891-.038a2 2 0 0 0 1.572-1.572c.038-.19.038-.42.038-.878V2.488c0-.457 0-.687-.038-.878A2 2 0 0 0 14.39.038C14.197 0 13.965 0 13.5 0s-.697 0-.89.038a2 2 0 0 0-1.572 1.572C11 1.803 11 2.035 11 2.5Zm-11 0v13c0 .465 0 .697.038.89a2 2 0 0 0 1.571 1.572c.194.038.426.038.89.038.465 0 .698 0 .891-.038a2 2 0 0 0 1.572-1.572C5 16.2 5 15.97 5 15.512V2.488c0-.457 0-.687-.038-.878A2 2 0 0 0 3.39.038C3.197 0 2.965 0 2.5 0s-.697 0-.89.038A2 2 0 0 0 .037 1.61C0 1.803 0 2.035 0 2.5Z"/></symbol><symbol xmlns="http://www.w3.org/2000/svg" id="play" fill="none" viewBox="0 0 19 24"><path fill="currentColor" fill-rule="evenodd" stroke="currentColor" d="M17.12 13.98 4.56 22.62A2.4 2.4 0 0 1 .8 20.64V3.36a2.4 2.4 0 0 1 3.76-1.97l12.56 8.63a2.4 2.4 0 0 1 0 3.96Z" clip-rule="evenodd"/></symbol><symbol xmlns="http://www.w3.org/2000/svg" id="settings" fill="none" viewBox="0 0 24 24"><g stroke="currentColor" stroke-linecap="round" stroke-linejoin="round" stroke-width="2" clip-path="url(#a)"><path d="M12 15a3 3 0 1 0 0-6 3 3 0 0 0 0 6Z"/><path d="M19.4 15a1.65 1.65 0 0 0 .33 1.82l.06.06a1.998 1.998 0 0 1 0 2.83 1.998 1.998 0 0 1-2.83 0l-.06-.06a1.65 1.65 0 0 0-1.82-.33 1.65 1.65 0 0 0-1 1.51V21a2 2 0 0 1-4 0v-.09A1.65 1.65 0 0 0 9 19.4a1.65 1.65 0 0 0-1.82.33l-.06.06a1.998 1.998 0 0 1-2.83 0 2 2 0 0 1 0-2.83l.06-.06a1.65 1.65 0 0 0 .33-1.82 1.65 1.65 0 0 0-1.51-1H3a2 2 0 1 1 0-4h.09A1.65 1.65 0 0 0 4.6 9a1.65 1.65 0 0 0-.33-1.82l-.06-.06a2 2 0 1 1 2.83-2.83l.06.06a1.65 1.65 0 0 0 1.82.33H9a1.65 1.65 0 0 0 1-1.51V3a2 2 0 1 1 4 0v.09a1.65 1.65 0 0 0 1 1.51 1.65 1.65 0 0 0 1.82-.33l.06-.06a2 2 0 0 1 3.417 1.415 2 2 0 0 1-.587 1.415l-.06.06a1.65 1.65 0 0 0-.33 1.82V9a1.65 1.65 0 0 0 1.51 1H21a2 2 0 0 1 0 4h-.09a1.65 1.65 0 0 0-1.51 1v0Z"/></g><defs><clipPath id="a"><path fill="currentColor" d="M0 0h24v24H0z"/></clipPath></defs></symbol><symbol xmlns="http://www.w3.org/2000/svg" id="stats" fill="inherit" viewBox="0 0 24 24"><path fill-rule="evenodd" d="M19.96 2c.55 0 1 .46 1 1.03v16.94c0 .57-.45 1.03-1 1.03h-3c-.55 0-1-.46-1-1.03V3.03c0-.57.45-1.03 1-1.03h3zM13 8c.55 0 1 .47 1 1.05v10.9c0 .58-.45 1.05-1 1.05h-3c-.55 0-1-.47-1-1.05V9.04C9 8.47 9.45 8 10 8h3zm-7 7c.55 0 1 .43 1 .95v4.1c0 .52-.45.95-1 .95H3c-.55 0-1-.43-1-.95v-4.1c0-.52.45-.95 1-.95h3z"/></symbol><symbol xmlns="http://www.w3.org/2000/svg" id="subtract" viewBox="0 0 32 16"><path fill-rule="evenodd" d="M16.037 0c.547 8.938 7.246 16 15.43 16H.533c8.184 0 14.883-7.062 15.43-16h.074ZM0 15.99c.177.006.355.01.533.01H0v-.01Zm32 0c-.177.006-.355.01-.533.01H32v-.01Z" clip-rule="evenodd"/></symbol><symbol xmlns="http://www.w3.org/2000/svg" id="sudoku" fill="none" viewBox="0 0 20 20"><rect width="16.5" height="16.5" x="1.75" y="1.75" stroke="currentColor" stroke-width="1.5" rx="1.25"/><path fill="currentColor" d="M7 19V1h.9v18H7Zm5.19 0V1h.9v18h-.9Z"/><path fill="currentColor" d="M19 7.795H1v-.9h18v.9Zm0 5.245H1v-.9h18v.9ZM3.82 4.682a.9.9 0 1 1 1.8 0 .9.9 0 0 1-1.8 0ZM14.405 9.9a.9.9 0 0 1 1.8 0 .9.9 0 1 1-1.8 0Z"/></symbol><symbol xmlns="http://www.w3.org/2000/svg" id="time" fill="inherit" viewBox="0 0 16 21"><path fill-rule="evenodd" d="M8 5a8 8 0 1 1 0 16A8 8 0 0 1 8 5zm4.89 3.28a.97.97 0 0 0-1.38 0L7.3 12.52a.97.97 0 1 0 1.37 1.38l4.23-4.23c.38-.38.38-1 0-1.38zM10.56 0c.8 0 1.44.67 1.44 1.5S11.36 3 10.56 3H5.44C4.64 3 4 2.33 4 1.5S4.64 0 5.44 0h5.12z"/></symbol></svg>