<svg width="0" height="0"><symbol id="common" viewBox="0 0 0 0"><symbol xmlns="http://www.w3.org/2000/svg" id="chevron" fill="none" viewBox="0 0 24 24"><path stroke="currentColor" stroke-linecap="round" stroke-linejoin="round" stroke-width="2" d="m15 19-7-7 7-7"/></symbol></symbol><symbol id="other" viewBox="0 0 0 0"><symbol xmlns="http://www.w3.org/2000/svg" id="arrow" fill="inherit" viewBox="0 0 24 24"><path stroke="currentColor" stroke-linecap="round" stroke-linejoin="round" stroke-width="2" d="m15 19-7-7 7-7"/></symbol></symbol><symbol xmlns="http://www.w3.org/2000/svg" id="vite" aria-hidden="true" viewBox="0 0 256 257"><defs><linearGradient id="a" x1="-.828%" x2="57.636%" y1="7.652%" y2="78.411%"><stop offset="0%" stop-color="#41D1FF"/><stop offset="100%" stop-color="#BD34FE"/></linearGradient><linearGradient id="b" x1="43.376%" x2="50.316%" y1="2.242%" y2="89.03%"><stop offset="0%" stop-color="#FFEA83"/><stop offset="8.333%" stop-color="#FFDD35"/><stop offset="100%" stop-color="#FFA800"/></linearGradient></defs><path fill="url(#a)" d="M255.153 37.938 134.897 252.976c-2.483 4.44-8.862 4.466-11.382.048L.875 37.958c-2.746-4.814 1.371-10.646 6.827-9.67l120.385 21.517a6.537 6.537 0 0 0 2.322-.004l117.867-21.483c5.438-.991 9.574 4.796 6.877 9.62Z"/><path fill="url(#b)" d="M185.432.063 96.44 17.501a3.268 3.268 0 0 0-2.634 3.014l-5.474 92.456a3.268 3.268 0 0 0 3.997 3.378l24.777-5.718c2.318-.535 4.413 1.507 3.936 3.838l-7.361 36.047c-.495 2.426 1.782 4.5 4.151 3.78l15.304-4.649c2.372-.72 4.652 1.36 4.15 3.788l-11.698 56.621c-.732 3.542 3.979 5.473 5.943 2.437l1.313-2.028 72.516-144.72c1.215-2.423-.88-5.186-3.54-4.672l-25.505 4.922c-2.396.462-4.435-1.77-3.759-4.114l16.646-57.705c.677-2.35-1.37-4.583-3.769-4.113Z"/></symbol><symbol xmlns="http://www.w3.org/2000/svg" id="pause" fill="inherit" viewBox="0 0 24 24"><path d="M15 5.5v13c0 .465 0 .697.038.89a2 2 0 0 0 1.571 1.572c.194.038.426.038.89.038.465 0 .698 0 .891-.038a2 2 0 0 0 1.572-1.572c.038-.19.038-.42.038-.878V5.488c0-.457 0-.687-.038-.878a2 2 0 0 0-1.572-1.572C18.197 3 17.965 3 17.5 3s-.697 0-.89.038a2 2 0 0 0-1.572 1.572C15 4.803 15 5.035 15 5.5Zm-11 0v13c0 .465 0 .697.038.89a2 2 0 0 0 1.571 1.572c.194.038.426.038.89.038.465 0 .698 0 .891-.038a2 2 0 0 0 1.572-1.572C9 19.2 9 18.97 9 18.512V5.488c0-.457 0-.687-.038-.878A2 2 0 0 0 7.39 3.038C7.197 3 6.965 3 6.5 3s-.697 0-.89.038A2 2 0 0 0 4.037 4.61C4 4.803 4 5.035 4 5.5Z"/><path d="M15 5.5v13c0 .465 0 .697.038.89a2 2 0 0 0 1.571 1.572c.194.038.426.038.89.038.465 0 .698 0 .891-.038a2 2 0 0 0 1.572-1.572c.038-.19.038-.42.038-.878V5.488c0-.457 0-.687-.038-.878a2 2 0 0 0-1.572-1.572C18.197 3 17.965 3 17.5 3s-.697 0-.89.038a2 2 0 0 0-1.572 1.572C15 4.803 15 5.035 15 5.5Zm-11 0v13c0 .465 0 .697.038.89a2 2 0 0 0 1.571 1.572c.194.038.426.038.89.038.465 0 .698 0 .891-.038a2 2 0 0 0 1.572-1.572C9 19.2 9 18.97 9 18.512V5.488c0-.457 0-.687-.038-.878A2 2 0 0 0 7.39 3.038C7.197 3 6.965 3 6.5 3s-.697 0-.89.038A2 2 0 0 0 4.037 4.61C4 4.803 4 5.035 4 5.5Z"/></symbol><symbol xmlns="http://www.w3.org/2000/svg" id="play" viewBox="0 0 24 24"><path fill="red" d="M5 17.333V6.667c0-.88 0-1.32.185-1.58a1 1 0 0 1 .687-.412c.317-.04.704.166 1.478.579h.003l10 5.334c.859.459 1.289.688 1.43.993a1 1 0 0 1 0 .838c-.141.305-.571.534-1.43.993l-10 5.333-.003.002c-.774.413-1.162.619-1.478.578a1 1 0 0 1-.687-.412C5 18.653 5 18.213 5 17.333Z"/></symbol></svg>