<svg width="18" height="18" viewBox="0 0 18 18" fill="none" xmlns="http://www.w3.org/2000/svg">
    <rect x="0.75" y="0.75" width="16.5" height="16.5" fill="white" stroke="black" stroke-width="1.5" />
    <path d="M6 18L6 0L6.9 -3.93403e-08L6.9 9L6.9 18L6 18Z" fill="black" />
    <path d="M11.1895 18L11.1895 0L12.0895 -3.93403e-08L12.0895 18L11.1895 18Z" fill="black" />
    <path d="M18 6.79529L0 6.79529L-7.86805e-08 5.89529L18 5.89529L18 6.79529Z" fill="black" />
    <path d="M18 12.04L9 12.04L0 12.04L-7.86805e-08 11.14L18 11.14L18 12.04Z" fill="black" />
    <path
        d="M2.82031 3.68162C2.82031 3.18456 3.22326 2.78162 3.72031 2.78162V2.78162C4.21737 2.78162 4.62031 3.18456 4.62031 3.68162V3.68162C4.62031 4.17867 4.21737 4.58162 3.72031 4.58162V4.58162C3.22326 4.58162 2.82031 4.17867 2.82031 3.68162V3.68162Z"
        fill="black" />
    <path
        d="M13.4052 8.9C13.4052 8.40294 13.8081 8 14.3052 8V8C14.8022 8 15.2052 8.40294 15.2052 8.9V8.9C15.2052 9.39706 14.8022 9.8 14.3052 9.8V9.8C13.8081 9.8 13.4052 9.39706 13.4052 8.9V8.9Z"
        fill="black" />
</svg>