<svg width="18" height="18" viewBox="0 0 18 18" fill="none" xmlns="http://www.w3.org/2000/svg">
    <g clip-path="url(#clip0_138_62)">
        <mask id="mask0_138_62" style="mask-type:luminance" maskUnits="userSpaceOnUse" x="0" y="0" width="18"
            height="18">
            <path d="M18 0H0V18H18V0Z" fill="white" />
        </mask>
        <g mask="url(#mask0_138_62)">
            <path d="M6 0H0V6H6V0Z" fill="white" />
            <path d="M12 0H6V6H12V0Z" fill="white" />
            <path d="M18 0H12V6H18V0Z" fill="white" />
            <path d="M6 6H0V12H6V6Z" fill="white" />
            <path d="M12 6H6V12H12V6Z" fill="white" />
            <path d="M18 6H12V12H18V6Z" fill="white" />
            <path d="M6 12H0V18H6V12Z" fill="white" />
            <path d="M12 12H6V18H12V12Z" fill="white" />
            <path d="M18 12H12V18H18V12Z" fill="white" />
            <path d="M6.29995 0H5.69995V18H6.29995V0Z" fill="black" />
            <path d="M12.3 0H11.7V18H12.3V0Z" fill="black" />
            <path d="M18 5.69995H0V6.29995H18V5.69995Z" fill="black" />
            <path d="M18 11.7H0V12.3H18V11.7Z" fill="black" />
            <path d="M3.90002 2.3999H2.40002V3.8999H3.90002V2.3999Z" fill="black" />
            <path d="M3.90002 8.3999H2.40002V9.8999H3.90002V8.3999Z" fill="black" />
            <path d="M8.25 14.1001H9.75V15.6001H8.25V14.1001Z" fill="black" />
            <path d="M14.25 8.3999H15.75V9.8999H14.25V8.3999Z" fill="black" />
        </g>
        <path d="M17.7 0.300049H0.300049V17.7H17.7V0.300049Z" stroke="black" stroke-width="1.5" />
    </g>
    <defs>
        <clipPath id="clip0_138_62">
            <rect width="18" height="18" fill="white" />
        </clipPath>
    </defs>
</svg>