<svg width="18" height="18" viewBox="0 0 18 18" fill="none" xmlns="http://www.w3.org/2000/svg">
<path fill-rule="evenodd" clip-rule="evenodd" d="M8.48627 1.76792C4.72194 2.03144 1.75 5.16865 1.75 9C1.75 13.0041 4.99594 16.25 9 16.25C12.2079 16.25 14.9297 14.1662 15.8848 11.2787C15.1497 11.5824 14.3441 11.75 13.5 11.75C10.0482 11.75 7.25 8.95178 7.25 5.5C7.25 4.10086 7.71011 2.80909 8.48627 1.76792ZM0.25 9C0.25 4.16751 4.16751 0.25 9 0.25C9.44962 0.25 9.89178 0.283976 10.3239 0.349619C10.6229 0.395029 10.8654 0.615534 10.9388 0.908862C11.0123 1.20219 10.9025 1.51095 10.6602 1.69194C9.49923 2.55935 8.75 3.94208 8.75 5.5C8.75 8.12335 10.8766 10.25 13.5 10.25C14.6342 10.25 15.6738 9.8534 16.4905 9.19064C16.7252 9.0002 17.0513 8.96923 17.3176 9.1121C17.584 9.25497 17.7386 9.54374 17.7097 9.8446C17.2843 14.2812 13.5477 17.75 9 17.75C4.16751 17.75 0.25 13.8325 0.25 9Z" fill="white"/>
</svg>
