<svg width="16" height="18" viewBox="0 0 16 18" fill="none" xmlns="http://www.w3.org/2000/svg">
    <path
        d="M11 2.5V15.5C11 15.9647 11 16.197 11.0384 16.3902C11.1962 17.1836 11.816 17.8037 12.6094 17.9615C12.8026 18 13.0349 18 13.4996 18C13.9642 18 14.197 18 14.3902 17.9615C15.1836 17.8037 15.8041 17.1836 15.9619 16.3902C16 16.1987 16 15.9687 16 15.5122V15.5V2.5V2.48777C16 2.03126 16 1.80136 15.9619 1.60986C15.8041 0.81648 15.1836 0.19624 14.3902 0.03843C14.197 -2.6077e-08 13.9647 0 13.5 0C13.0353 0 12.8026 -2.6077e-08 12.6094 0.03843C11.816 0.19624 11.1962 0.81648 11.0384 1.60986C11 1.80306 11 2.03534 11 2.5Z"
        fill="black" />
    <path
        d="M0 2.5V15.5C0 15.9647 2.12342e-07 16.197 0.0384302 16.3902C0.19624 17.1836 0.81599 17.8037 1.60938 17.9615C1.80257 18 2.0349 18 2.49956 18C2.96421 18 3.19698 18 3.39018 17.9615C4.18356 17.8037 4.8041 17.1836 4.96191 16.3902C5 16.1987 5 15.9687 5 15.5122V15.5V2.5V2.48777C5 2.03126 5 1.80136 4.96191 1.60986C4.8041 0.81648 4.18356 0.19624 3.39018 0.03843C3.19698 -2.6077e-08 2.96465 0 2.5 0C2.03535 0 1.80257 -2.6077e-08 1.60938 0.03843C0.81599 0.19624 0.19624 0.81648 0.0384302 1.60986C2.12342e-07 1.80306 0 2.03534 0 2.5Z"
        fill="black" />
</svg>