<svg width="24" height="24" viewBox="0 0 24 24" stroke="none" fill="inherit" xmlns="http://www.w3.org/2000/svg">
    <path
        d="M15 5.5V18.5C15 18.9647 15 19.197 15.0384 19.3902C15.1962 20.1836 15.816 20.8037 16.6094 20.9615C16.8026 21 17.0349 21 17.4996 21C17.9642 21 18.197 21 18.3902 20.9615C19.1836 20.8037 19.8041 20.1836 19.9619 19.3902C20 19.1987 20 18.9687 20 18.5122V18.5V5.5V5.48777C20 5.03126 20 4.80136 19.9619 4.60986C19.8041 3.81648 19.1836 3.19624 18.3902 3.03843C18.197 3 17.9647 3 17.5 3C17.0353 3 16.8026 3 16.6094 3.03843C15.816 3.19624 15.1962 3.81648 15.0384 4.60986C15 4.80306 15 5.03534 15 5.5Z" />
    <path
        d="M4 5.5V18.5C4 18.9647 4 19.197 4.03843 19.3902C4.19624 20.1836 4.81599 20.8037 5.60938 20.9615C5.80257 21 6.0349 21 6.49956 21C6.96421 21 7.19698 21 7.39018 20.9615C8.18356 20.8037 8.8041 20.1836 8.96191 19.3902C9 19.1987 9 18.9687 9 18.5122V18.5V5.5V5.48777C9 5.03126 9 4.80136 8.96191 4.60986C8.8041 3.81648 8.18356 3.19624 7.39018 3.03843C7.19698 3 6.96465 3 6.5 3C6.03535 3 5.80257 3 5.60938 3.03843C4.81599 3.19624 4.19624 3.81648 4.03843 4.60986C4 4.80306 4 5.03534 4 5.5Z" />
    <path
        d="M15 5.5V18.5C15 18.9647 15 19.197 15.0384 19.3902C15.1962 20.1836 15.816 20.8037 16.6094 20.9615C16.8026 21 17.0349 21 17.4996 21C17.9642 21 18.197 21 18.3902 20.9615C19.1836 20.8037 19.8041 20.1836 19.9619 19.3902C20 19.1987 20 18.9687 20 18.5122V18.5V5.5V5.48777C20 5.03126 20 4.80136 19.9619 4.60986C19.8041 3.81648 19.1836 3.19624 18.3902 3.03843C18.197 3 17.9647 3 17.5 3C17.0353 3 16.8026 3 16.6094 3.03843C15.816 3.19624 15.1962 3.81648 15.0384 4.60986C15 4.80306 15 5.03534 15 5.5Z" />
    <path
        d="M4 5.5V18.5C4 18.9647 4 19.197 4.03843 19.3902C4.19624 20.1836 4.81599 20.8037 5.60938 20.9615C5.80257 21 6.0349 21 6.49956 21C6.96421 21 7.19698 21 7.39018 20.9615C8.18356 20.8037 8.8041 20.1836 8.96191 19.3902C9 19.1987 9 18.9687 9 18.5122V18.5V5.5V5.48777C9 5.03126 9 4.80136 8.96191 4.60986C8.8041 3.81648 8.18356 3.19624 7.39018 3.03843C7.19698 3 6.96465 3 6.5 3C6.03535 3 5.80257 3 5.60938 3.03843C4.81599 3.19624 4.19624 3.81648 4.03843 4.60986C4 4.80306 4 5.03534 4 5.5Z" />
</svg>