<svg width="24" height="24" viewBox="0 0 24 24" stroke="inherit" fill="inherit" xmlns="http://www.w3.org/2000/svg">
    <path
        d="M5 17.3333V6.66663C5 5.78706 5 5.34728 5.18509 5.08704C5.34664 4.8599 5.59564 4.71053 5.87207 4.67487C6.1885 4.63406 6.57572 4.84058 7.35036 5.25372L7.35254 5.25488L17.3525 10.5882C18.212 11.0466 18.6418 11.2758 18.7826 11.581C18.9053 11.8469 18.9053 12.1531 18.7826 12.4189C18.6418 12.7241 18.212 12.9534 17.3525 13.4117L7.35254 18.7451L7.34978 18.7465C6.57553 19.1595 6.18842 19.3659 5.87207 19.3251C5.59564 19.2895 5.34664 19.1401 5.18509 18.913C5 18.6527 5 18.2129 5 17.3333Z" />
</svg>