<svg width="19" height="24" viewBox="0 0 19 24" fill="none" xmlns="http://www.w3.org/2000/svg">
    <path fill-rule="evenodd" clip-rule="evenodd"
        d="M17.12 13.9801L4.56 22.6201C4.19948 22.868 3.77803 23.0127 3.34123 23.0384C2.90443 23.0642 2.4689 22.97 2.08175 22.7662C1.69459 22.5623 1.37053 22.2564 1.14462 21.8817C0.918712 21.507 0.799544 21.0776 0.800004 20.6401V3.36007C0.801363 2.92336 0.921854 2.4953 1.14849 2.122C1.37513 1.7487 1.69933 1.44432 2.08617 1.24165C2.473 1.03897 2.9078 0.945684 3.34372 0.971838C3.77965 0.997991 4.20018 1.14259 4.56 1.39006L17.12 10.0201C17.4418 10.2405 17.7049 10.536 17.8868 10.881C18.0686 11.226 18.1637 11.6101 18.1637 12.0001C18.1637 12.3901 18.0686 12.7742 17.8868 13.1192C17.7049 13.4642 17.4418 13.7597 17.12 13.9801Z"
        fill="inherit" stroke="inherit" />
</svg>