<svg width="20" height="20" viewBox="0 0 20 20" fill="none" xmlns="http://www.w3.org/2000/svg">
<rect x="1.75" y="1.75" width="16.5" height="16.5" rx="1.25" stroke="#2E85EC" stroke-width="1.5"/>
<path d="M7 19L7 1L7.9 1L7.9 10L7.9 19L7 19Z" fill="#2E85EC"/>
<path d="M12.1895 19L12.1895 1L13.0895 1L13.0895 19L12.1895 19Z" fill="#2E85EC"/>
<path d="M19 7.79529L1 7.79529L1 6.89529L19 6.89529L19 7.79529Z" fill="#2E85EC"/>
<path d="M19 13.04L10 13.04L1 13.04L1 12.14L19 12.14L19 13.04Z" fill="#2E85EC"/>
<path d="M3.82031 4.68162C3.82031 4.18456 4.22326 3.78162 4.72031 3.78162V3.78162C5.21737 3.78162 5.62031 4.18456 5.62031 4.68162V4.68162C5.62031 5.17867 5.21737 5.58162 4.72031 5.58162V5.58162C4.22326 5.58162 3.82031 5.17867 3.82031 4.68162V4.68162Z" fill="#2E85EC"/>
<path d="M14.4052 9.9C14.4052 9.40294 14.8081 9 15.3052 9V9C15.8022 9 16.2052 9.40294 16.2052 9.9V9.9C16.2052 10.3971 15.8022 10.8 15.3052 10.8V10.8C14.8081 10.8 14.4052 10.3971 14.4052 9.9V9.9Z" fill="#2E85EC"/>
</svg>
