<svg width="22" height="22" viewBox="0 0 22 22" fill="none" xmlns="http://www.w3.org/2000/svg">
<path d="M11 0.25C11.4142 0.25 11.75 0.585786 11.75 1V2C11.75 2.41421 11.4142 2.75 11 2.75C10.5858 2.75 10.25 2.41421 10.25 2V1C10.25 0.585786 10.5858 0.25 11 0.25Z" fill="white"/>
<path fill-rule="evenodd" clip-rule="evenodd" d="M5.25 11C5.25 7.82436 7.82436 5.25 11 5.25C14.1756 5.25 16.75 7.82436 16.75 11C16.75 14.1756 14.1756 16.75 11 16.75C7.82436 16.75 5.25 14.1756 5.25 11ZM11 6.75C8.65279 6.75 6.75 8.65279 6.75 11C6.75 13.3472 8.65279 15.25 11 15.25C13.3472 15.25 15.25 13.3472 15.25 11C15.25 8.65279 13.3472 6.75 11 6.75Z" fill="white"/>
<path d="M4.45928 3.39862C4.16638 3.10573 3.69151 3.10573 3.39862 3.39862C3.10572 3.69152 3.10572 4.16639 3.39862 4.45929L4.10572 5.16639C4.39862 5.45929 4.87349 5.45929 5.16638 5.16639C5.45928 4.8735 5.45928 4.39862 5.16638 4.10573L4.45928 3.39862Z" fill="white"/>
<path d="M21.75 11C21.75 11.4142 21.4142 11.75 21 11.75H20C19.5858 11.75 19.25 11.4142 19.25 11C19.25 10.5858 19.5858 10.25 20 10.25H21C21.4142 10.25 21.75 10.5858 21.75 11Z" fill="white"/>
<path d="M18.6014 4.45928C18.8943 4.16638 18.8943 3.69151 18.6014 3.39862C18.3085 3.10572 17.8336 3.10572 17.5407 3.39862L16.8336 4.10572C16.5407 4.39862 16.5407 4.87349 16.8336 5.16638C17.1265 5.45928 17.6014 5.45928 17.8943 5.16638L18.6014 4.45928Z" fill="white"/>
<path d="M11 19.25C11.4142 19.25 11.75 19.5858 11.75 20V21C11.75 21.4142 11.4142 21.75 11 21.75C10.5858 21.75 10.25 21.4142 10.25 21V20C10.25 19.5858 10.5858 19.25 11 19.25Z" fill="white"/>
<path d="M17.8943 16.8336C17.6014 16.5407 17.1266 16.5407 16.8337 16.8336C16.5408 17.1265 16.5408 17.6014 16.8337 17.8943L17.5408 18.6014C17.8337 18.8943 18.3085 18.8943 18.6014 18.6014C18.8943 18.3085 18.8943 17.8336 18.6014 17.5407L17.8943 16.8336Z" fill="white"/>
<path d="M2.75 11C2.75 11.4142 2.41421 11.75 2 11.75H1C0.585786 11.75 0.25 11.4142 0.25 11C0.25 10.5858 0.585786 10.25 1 10.25H2C2.41421 10.25 2.75 10.5858 2.75 11Z" fill="white"/>
<path d="M5.16632 17.8943C5.45921 17.6014 5.45921 17.1265 5.16632 16.8336C4.87342 16.5407 4.39855 16.5407 4.10566 16.8336L3.39855 17.5407C3.10566 17.8336 3.10566 18.3085 3.39855 18.6014C3.69144 18.8943 4.16632 18.8943 4.45921 18.6014L5.16632 17.8943Z" fill="white"/>
</svg>
