<svg width="22" height="22" viewBox="0 0 22 22" fill="none" xmlns="http://www.w3.org/2000/svg">
<path d="M10 3C10 3.55228 10.4477 4 11 4C11.5523 4 12 3.55228 12 3H10ZM12 1C12 0.447715 11.5523 0 11 0C10.4477 0 10 0.447715 10 1H12ZM12 19C12 18.4477 11.5523 18 11 18C10.4477 18 10 18.4477 10 19H12ZM10 21C10 21.5523 10.4477 22 11 22C11.5523 22 12 21.5523 12 21H10ZM4.70711 6.12132C5.09763 6.51184 5.7308 6.51184 6.12132 6.12132C6.51184 5.7308 6.51184 5.09763 6.12132 4.70711L4.70711 6.12132ZM4.70711 3.29289C4.31658 2.90237 3.68342 2.90237 3.29289 3.29289C2.90237 3.68342 2.90237 4.31658 3.29289 4.70711L4.70711 3.29289ZM17.4351 16.0208C17.0446 15.6303 16.4114 15.6303 16.0209 16.0208C15.6304 16.4113 15.6304 17.0445 16.0209 17.435L17.4351 16.0208ZM17.4351 18.8492C17.8257 19.2397 18.4588 19.2397 18.8493 18.8492C19.2399 18.4587 19.2399 17.8255 18.8493 17.435L17.4351 18.8492ZM3 12C3.55228 12 4 11.5523 4 11C4 10.4477 3.55228 10 3 10V12ZM1 10C0.447715 10 0 10.4477 0 11C0 11.5523 0.447715 12 1 12V10ZM19 10C18.4477 10 18 10.4477 18 11C18 11.5523 18.4477 12 19 12V10ZM21 12C21.5523 12 22 11.5523 22 11C22 10.4477 21.5523 10 21 10V12ZM16.0214 4.70711C15.6309 5.09763 15.6309 5.7308 16.0214 6.12132C16.4119 6.51184 17.0451 6.51184 17.4356 6.12132L16.0214 4.70711ZM18.8498 4.70711C19.2404 4.31658 19.2404 3.68342 18.8498 3.29289C18.4593 2.90237 17.8261 2.90237 17.4356 3.29289L18.8498 4.70711ZM6.12181 17.435C6.51233 17.0445 6.51233 16.4113 6.12181 16.0208C5.73128 15.6303 5.09812 15.6303 4.7076 16.0208L6.12181 17.435ZM3.29338 17.435C2.90286 17.8255 2.90286 18.4587 3.29338 18.8492C3.68391 19.2397 4.31707 19.2397 4.70759 18.8492L3.29338 17.435ZM11 15C8.79086 15 7 13.2091 7 11H5C5 14.3137 7.68629 17 11 17V15ZM7 11C7 8.79086 8.79086 7 11 7V5C7.68629 5 5 7.68629 5 11H7ZM11 7C13.2091 7 15 8.79086 15 11H17C17 7.68629 14.3137 5 11 5V7ZM15 11C15 13.2091 13.2091 15 11 15V17C14.3137 17 17 14.3137 17 11H15ZM12 3V1H10V3H12ZM10 19V21H12V19H10ZM6.12132 4.70711L4.70711 3.29289L3.29289 4.70711L4.70711 6.12132L6.12132 4.70711ZM16.0209 17.435L17.4351 18.8492L18.8493 17.435L17.4351 16.0208L16.0209 17.435ZM3 10H1V12H3V10ZM19 12H21V10H19V12ZM17.4356 6.12132L18.8498 4.70711L17.4356 3.29289L16.0214 4.70711L17.4356 6.12132ZM4.7076 16.0208L3.29338 17.435L4.70759 18.8492L6.12181 17.435L4.7076 16.0208Z" fill="white"/>
</svg>
